<?xml version="1.0"?>
<svg xmlns="http://www.w3.org/2000/svg" height="512px" viewBox="0 0 511.98473 511" width="512px"><path d="m358.785156 174.558594 66.164063-66.160156-21.285157-21.285157-66.164062 66.160157-32.460938-32.457032-36.546874 36.546875c-32.523438-15.792969-69.632813-21.914062-105.714844-17.265625-41.238282 5.308594-78.609375 23.6875-108.078125 53.160156-35.273438 35.269532-54.699219 82.167969-54.699219 132.050782 0 49.882812 19.425781 96.78125 54.699219 132.050781 35.273437 35.273437 82.167969 54.703125 132.054687 54.703125 49.882813 0 96.777344-19.425781 132.050782-54.703125 29.46875-29.464844 47.851562-66.839844 53.160156-108.074219 4.648437-36.085937-1.472656-73.191406-17.265625-105.71875l36.546875-36.546875zm0 0" fill="#FC644F"/><path d="m398.859375 179.402344 28.558594-9.519532 18.820312 56.464844-28.558593 9.515625zm0 0" fill="#FC644F"/><path d="m446.003906 151.25 9.519532-28.558594 56.460937 18.820313-9.519531 28.558593zm0 0" fill="#FC644F"/><path d="m342.402344 10.011719 28.558594-9.519531 18.816406 56.464843-28.558594 9.515625zm0 0" fill="#FC644F"/><path d="m276.625 94.796875 9.515625-28.558594 56.464844 18.816407-9.519531 28.558593zm0 0" fill="#FC644F"/></svg>
